<svg width="98" height="98" viewBox="0 0 98 98" fill="none" xmlns="http://www.w3.org/2000/svg">
<g filter="url(#filter0_dd_574_5710)">
<rect x="21" y="21" width="56" height="56" rx="8" fill="white"/>
<rect x="21" y="21" width="56" height="56" rx="8" fill="#BBBBBF" fill-opacity="0.2"/>
<path d="M58.9476 37.2166H38.7494L40.9376 35.0453C41.2545 34.7283 41.4326 34.2985 41.4326 33.8502C41.4326 33.402 41.2545 32.9721 40.9376 32.6552C40.6206 32.3382 40.1907 32.1602 39.7425 32.1602C39.2943 32.1602 38.8644 32.3382 38.5474 32.6552L33.4979 37.7047C33.3401 37.8612 33.2149 38.0474 33.1294 38.2525C33.044 38.4576 33 38.6776 33 38.8998C33 39.122 33.044 39.342 33.1294 39.5471C33.2149 39.7522 33.3401 39.9384 33.4979 40.0948L38.5474 45.1444C38.7039 45.3021 38.8901 45.4274 39.0952 45.5128C39.3003 45.5983 39.5203 45.6423 39.7425 45.6423C39.9647 45.6423 40.1847 45.5983 40.3898 45.5128C40.5949 45.4274 40.7811 45.3021 40.9376 45.1444C41.0953 44.9879 41.2205 44.8018 41.306 44.5966C41.3914 44.3915 41.4354 44.1715 41.4354 43.9493C41.4354 43.7271 41.3914 43.5071 41.306 43.302C41.2205 43.0969 41.0953 42.9107 40.9376 42.7543L38.7494 40.583H58.9476C59.2924 40.5763 59.6352 40.6376 59.9564 40.7634C60.2775 40.8892 60.5707 41.077 60.8192 41.3162C61.0678 41.5553 61.2667 41.8411 61.4048 42.1572C61.5429 42.4732 61.6173 42.8134 61.6239 43.1582V47.3157C61.6239 47.7621 61.8012 48.1902 62.1169 48.5059C62.4325 48.8215 62.8606 48.9989 63.3071 48.9989C63.7535 48.9989 64.1816 48.8215 64.4972 48.5059C64.8129 48.1902 64.9902 47.7621 64.9902 47.3157V43.1582C64.9836 42.3713 64.8221 41.5934 64.5148 40.869C64.2076 40.1445 63.7607 39.4876 63.1995 38.9359C62.6384 38.3841 61.9741 37.9483 61.2446 37.6533C60.515 37.3583 59.7345 37.2099 58.9476 37.2166ZM59.4526 52.8534C59.1356 52.5364 58.7057 52.3584 58.2575 52.3584C57.8093 52.3584 57.3794 52.5364 57.0624 52.8534C56.7455 53.1703 56.5674 53.6002 56.5674 54.0484C56.5674 54.4967 56.7455 54.9265 57.0624 55.2435L59.2506 57.4148H39.0524C38.7076 57.4215 38.3648 57.3602 38.0436 57.2344C37.7225 57.1086 37.4293 56.9207 37.1808 56.6816C36.9322 56.4424 36.7333 56.1567 36.5952 55.8406C36.4571 55.5245 36.3827 55.1844 36.3761 54.8395V50.6821C36.3761 50.2356 36.1988 49.8075 35.8831 49.4919C35.5675 49.1762 35.1394 48.9989 34.6929 48.9989C34.2465 48.9989 33.8184 49.1762 33.5028 49.4919C33.1871 49.8075 33.0098 50.2356 33.0098 50.6821V54.8395C33.0164 55.6264 33.1779 56.4043 33.4852 57.1288C33.7924 57.8533 34.2393 58.5101 34.8005 59.0619C35.3616 59.6136 36.0259 60.0494 36.7554 60.3444C37.485 60.6394 38.2655 60.7878 39.0524 60.7812H59.2506L57.0624 62.9525C56.9047 63.1089 56.7795 63.2951 56.694 63.5002C56.6086 63.7053 56.5646 63.9253 56.5646 64.1475C56.5646 64.3697 56.6086 64.5897 56.694 64.7948C56.7795 64.9999 56.9047 65.1861 57.0624 65.3426C57.2189 65.5003 57.4051 65.6256 57.6102 65.711C57.8153 65.7965 58.0353 65.8405 58.2575 65.8405C58.4797 65.8405 58.6997 65.7965 58.9048 65.711C59.1099 65.6256 59.2961 65.5003 59.4526 65.3426L64.5021 60.293C64.6599 60.1366 64.7851 59.9504 64.8706 59.7453C64.956 59.5402 65 59.3202 65 59.098C65 58.8758 64.956 58.6558 64.8706 58.4507C64.7851 58.2455 64.6599 58.0594 64.5021 57.9029L59.4526 52.8534Z" fill="black"/>
<path d="M58.9476 37.2166H38.7494L40.9376 35.0453C41.2545 34.7283 41.4326 34.2985 41.4326 33.8502C41.4326 33.402 41.2545 32.9721 40.9376 32.6552C40.6206 32.3382 40.1907 32.1602 39.7425 32.1602C39.2943 32.1602 38.8644 32.3382 38.5474 32.6552L33.4979 37.7047C33.3401 37.8612 33.2149 38.0474 33.1294 38.2525C33.044 38.4576 33 38.6776 33 38.8998C33 39.122 33.044 39.342 33.1294 39.5471C33.2149 39.7522 33.3401 39.9384 33.4979 40.0948L38.5474 45.1444C38.7039 45.3021 38.8901 45.4274 39.0952 45.5128C39.3003 45.5983 39.5203 45.6423 39.7425 45.6423C39.9647 45.6423 40.1847 45.5983 40.3898 45.5128C40.5949 45.4274 40.7811 45.3021 40.9376 45.1444C41.0953 44.9879 41.2205 44.8018 41.306 44.5966C41.3914 44.3915 41.4354 44.1715 41.4354 43.9493C41.4354 43.7271 41.3914 43.5071 41.306 43.302C41.2205 43.0969 41.0953 42.9107 40.9376 42.7543L38.7494 40.583H58.9476C59.2924 40.5763 59.6352 40.6376 59.9564 40.7634C60.2775 40.8892 60.5707 41.077 60.8192 41.3162C61.0678 41.5553 61.2667 41.8411 61.4048 42.1572C61.5429 42.4732 61.6173 42.8134 61.6239 43.1582V47.3157C61.6239 47.7621 61.8012 48.1902 62.1169 48.5059C62.4325 48.8215 62.8606 48.9989 63.3071 48.9989C63.7535 48.9989 64.1816 48.8215 64.4972 48.5059C64.8129 48.1902 64.9902 47.7621 64.9902 47.3157V43.1582C64.9836 42.3713 64.8221 41.5934 64.5148 40.869C64.2076 40.1445 63.7607 39.4876 63.1995 38.9359C62.6384 38.3841 61.9741 37.9483 61.2446 37.6533C60.515 37.3583 59.7345 37.2099 58.9476 37.2166ZM59.4526 52.8534C59.1356 52.5364 58.7057 52.3584 58.2575 52.3584C57.8093 52.3584 57.3794 52.5364 57.0624 52.8534C56.7455 53.1703 56.5674 53.6002 56.5674 54.0484C56.5674 54.4967 56.7455 54.9265 57.0624 55.2435L59.2506 57.4148H39.0524C38.7076 57.4215 38.3648 57.3602 38.0436 57.2344C37.7225 57.1086 37.4293 56.9207 37.1808 56.6816C36.9322 56.4424 36.7333 56.1567 36.5952 55.8406C36.4571 55.5245 36.3827 55.1844 36.3761 54.8395V50.6821C36.3761 50.2356 36.1988 49.8075 35.8831 49.4919C35.5675 49.1762 35.1394 48.9989 34.6929 48.9989C34.2465 48.9989 33.8184 49.1762 33.5028 49.4919C33.1871 49.8075 33.0098 50.2356 33.0098 50.6821V54.8395C33.0164 55.6264 33.1779 56.4043 33.4852 57.1288C33.7924 57.8533 34.2393 58.5101 34.8005 59.0619C35.3616 59.6136 36.0259 60.0494 36.7554 60.3444C37.485 60.6394 38.2655 60.7878 39.0524 60.7812H59.2506L57.0624 62.9525C56.9047 63.1089 56.7795 63.2951 56.694 63.5002C56.6086 63.7053 56.5646 63.9253 56.5646 64.1475C56.5646 64.3697 56.6086 64.5897 56.694 64.7948C56.7795 64.9999 56.9047 65.1861 57.0624 65.3426C57.2189 65.5003 57.4051 65.6256 57.6102 65.711C57.8153 65.7965 58.0353 65.8405 58.2575 65.8405C58.4797 65.8405 58.6997 65.7965 58.9048 65.711C59.1099 65.6256 59.2961 65.5003 59.4526 65.3426L64.5021 60.293C64.6599 60.1366 64.7851 59.9504 64.8706 59.7453C64.956 59.5402 65 59.3202 65 59.098C65 58.8758 64.956 58.6558 64.8706 58.4507C64.7851 58.2455 64.6599 58.0594 64.5021 57.9029L59.4526 52.8534Z" fill="#BBBBBF" fill-opacity="0.2"/>
</g>
<defs>
<filter id="filter0_dd_574_5710" x="0" y="0" width="98" height="98" filterUnits="userSpaceOnUse" color-interpolation-filters="sRGB">
<feFlood flood-opacity="0" result="BackgroundImageFix"/>
<feColorMatrix in="SourceAlpha" type="matrix" values="0 0 0 0 0 0 0 0 0 0 0 0 0 0 0 0 0 0 127 0" result="hardAlpha"/>
<feOffset dx="4" dy="4"/>
<feGaussianBlur stdDeviation="8.5"/>
<feColorMatrix type="matrix" values="0 0 0 0 0 0 0 0 0 0 0 0 0 0 0 0 0 0 0.16 0"/>
<feBlend mode="normal" in2="BackgroundImageFix" result="effect1_dropShadow_574_5710"/>
<feColorMatrix in="SourceAlpha" type="matrix" values="0 0 0 0 0 0 0 0 0 0 0 0 0 0 0 0 0 0 127 0" result="hardAlpha"/>
<feOffset dx="-4" dy="-4"/>
<feGaussianBlur stdDeviation="8.5"/>
<feColorMatrix type="matrix" values="0 0 0 0 0.916667 0 0 0 0 0.916667 0 0 0 0 0.916667 0 0 0 0.08 0"/>
<feBlend mode="normal" in2="effect1_dropShadow_574_5710" result="effect2_dropShadow_574_5710"/>
<feBlend mode="normal" in="SourceGraphic" in2="effect2_dropShadow_574_5710" result="shape"/>
</filter>
</defs>
</svg>
