<svg width="404" height="537" viewBox="0 0 404 537" fill="none" xmlns="http://www.w3.org/2000/svg">
<g style="mix-blend-mode:multiply" opacity="0.46">
<path opacity="0.08" d="M331.834 27.8682H72.1423C32.9282 27.8682 1.13892 59.6575 1.13892 98.8716V463.205C1.13892 502.419 32.9282 534.208 72.1423 534.208H331.834C371.048 534.208 402.837 502.419 402.837 463.205V98.8716C402.837 59.6575 371.048 27.8682 331.834 27.8682Z" fill="#020202"/>
<path opacity="0.17" d="M331.038 27.8682H72.9334C33.9113 27.8682 2.27759 59.5018 2.27759 98.524V461.453C2.27759 500.475 33.9113 532.109 72.9334 532.109H331.038C370.06 532.109 401.694 500.475 401.694 461.453V98.524C401.694 59.5018 370.06 27.8682 331.038 27.8682Z" fill="#020202"/>
<path opacity="0.25" d="M330.242 27.8682H73.7247C34.8946 27.8682 3.4165 59.3462 3.4165 98.1764V459.697C3.4165 498.527 34.8946 530.005 73.7247 530.005H330.242C369.073 530.005 400.551 498.527 400.551 459.697V98.1764C400.551 59.3462 369.073 27.8682 330.242 27.8682Z" fill="#010101"/>
<path opacity="0.33" d="M329.46 27.8682H74.5159C35.8802 27.8682 4.55981 59.1886 4.55981 97.8242V457.945C4.55981 496.581 35.8802 527.901 74.5159 527.901H329.46C368.096 527.901 399.416 496.581 399.416 457.945V97.8242C399.416 59.1886 368.096 27.8682 329.46 27.8682Z" fill="#010101"/>
<path opacity="0.42" d="M328.664 27.8682H75.307C36.8633 27.8682 5.69849 59.0329 5.69849 97.4766V456.194C5.69849 494.637 36.8633 525.802 75.307 525.802H328.664C367.108 525.802 398.273 494.637 398.273 456.194V97.4766C398.273 59.0329 367.108 27.8682 328.664 27.8682Z" fill="#010101"/>
<path opacity="0.5" d="M327.873 27.8682H76.0983C37.8466 27.8682 6.8374 58.8773 6.8374 97.1291V454.437C6.8374 492.689 37.8466 523.698 76.0983 523.698H327.873C366.125 523.698 397.134 492.689 397.134 454.437V97.1291C397.134 58.8773 366.125 27.8682 327.873 27.8682Z" fill="#010101"/>
<path opacity="0.58" d="M327.087 27.8682H76.8894C38.8322 27.8682 7.98071 58.7196 7.98071 96.7769V452.69C7.98071 490.747 38.8322 521.599 76.8894 521.599H327.087C365.144 521.599 395.995 490.747 395.995 452.69V96.7769C395.995 58.7196 365.144 27.8682 327.087 27.8682Z" fill="#010101"/>
<path opacity="0.67" d="M326.295 27.8682H77.6805C39.8153 27.8682 9.11938 58.564 9.11938 96.4293V450.934C9.11938 488.799 39.8153 519.495 77.6805 519.495H326.295C364.161 519.495 394.856 488.799 394.856 450.934V96.4293C394.856 58.564 364.161 27.8682 326.295 27.8682Z" fill="#010101"/>
<path opacity="0.75" d="M325.5 27.8682H78.4719C40.7986 27.8682 10.2583 58.4084 10.2583 96.0817V449.182C10.2583 486.856 40.7986 517.396 78.4719 517.396H325.5C363.173 517.396 393.713 486.856 393.713 449.182V96.0817C393.713 58.4084 363.173 27.8682 325.5 27.8682Z" fill="#010101"/>
<path opacity="0.83" d="M324.713 27.8682H79.2584C41.7796 27.8682 11.397 58.2507 11.397 95.7296V447.431C11.397 484.91 41.7796 515.292 79.2584 515.292H324.713C362.192 515.292 392.574 484.91 392.574 447.431V95.7296C392.574 58.2507 362.192 27.8682 324.713 27.8682Z" fill="black"/>
<path opacity="0.92" d="M323.922 27.8682H80.0543C42.7675 27.8682 12.5405 58.0951 12.5405 95.382V445.679C12.5405 482.966 42.7675 513.193 80.0543 513.193H323.922C361.209 513.193 391.436 482.966 391.436 445.679V95.382C391.436 58.0951 361.209 27.8682 323.922 27.8682Z" fill="black"/>
<path d="M323.126 27.8682H80.8457C43.7508 27.8682 13.6794 57.9395 13.6794 95.0344V443.923C13.6794 481.018 43.7508 511.089 80.8457 511.089H323.126C360.221 511.089 390.292 481.018 390.292 443.923V95.0344C390.292 57.9395 360.221 27.8682 323.126 27.8682Z" fill="black"/>
</g>
<path d="M322.767 28.3119H80.8811C43.8466 28.3119 13.8242 58.3695 13.8242 95.4474V444.176C13.8242 481.254 43.8466 511.312 80.8811 511.312H322.767C359.802 511.312 389.824 481.254 389.824 444.176V95.4474C389.824 58.3695 359.802 28.3119 322.767 28.3119Z" fill="#D98223"/>
<path style="mix-blend-mode:soft-light" d="M322.767 28.3119H80.8811C43.8466 28.3119 13.8242 58.3695 13.8242 95.4474V444.176C13.8242 481.254 43.8466 511.312 80.8811 511.312H322.767C359.802 511.312 389.824 481.254 389.824 444.176V95.4474C389.824 58.3695 359.802 28.3119 322.767 28.3119Z" fill="url(#paint0_linear_209_12952)"/>
<path d="M314.737 49.5497C321.808 49.5491 328.811 50.9394 335.344 53.6412C341.877 56.343 347.813 60.3033 352.813 65.2959C357.813 70.2885 361.778 76.2155 364.483 82.7385C367.187 89.2614 368.578 96.2524 368.576 103.312V435.325C368.576 442.384 367.184 449.374 364.479 455.895C361.773 462.416 357.808 468.342 352.808 473.333C347.808 478.324 341.873 482.283 335.341 484.984C328.808 487.685 321.807 489.075 314.737 489.074H88.9302C81.8598 489.075 74.8585 487.685 68.3261 484.984C61.7937 482.283 55.8583 478.324 50.8587 473.333C45.8592 468.342 41.8934 462.416 39.1879 455.895C36.4825 449.374 35.0903 442.384 35.0909 435.325V103.312C35.0885 96.2524 36.4793 89.2614 39.184 82.7385C41.8887 76.2155 45.8541 70.2885 50.8539 65.2959C55.8536 60.3033 61.7897 56.343 68.3229 53.6412C74.8562 50.9394 81.8586 49.5491 88.9302 49.5497H314.737ZM314.737 43.3119H88.9302C81.0365 43.3089 73.2196 44.8588 65.9261 47.8729C58.6327 50.8871 52.0056 55.3065 46.4238 60.8786C40.8419 66.4506 36.4145 73.0662 33.3947 80.3471C30.3749 87.6281 28.8218 95.4317 28.8242 103.312V435.325C28.8236 443.203 30.3774 451.004 33.3969 458.282C36.4164 465.56 40.8424 472.173 46.4222 477.744C52.0019 483.314 58.6262 487.733 65.9166 490.747C73.2071 493.761 81.0209 495.313 88.9119 495.312H314.718C322.611 495.314 330.426 493.764 337.718 490.751C345.011 487.737 351.637 483.319 357.218 477.749C362.8 472.178 367.228 465.565 370.249 458.285C373.269 451.006 374.824 443.204 374.824 435.325V103.312C374.826 95.4334 373.273 87.6315 370.254 80.352C367.235 73.0726 362.81 66.4581 357.23 60.8864C351.65 55.3147 345.025 50.8949 337.734 47.8794C330.443 44.864 322.629 43.3119 314.737 43.3119V43.3119Z" fill="#FFE6B3"/>
<g style="mix-blend-mode:multiply" opacity="0.32">
<path d="M97.2456 19.9424C97.2456 19.9424 99.1116 3.08911 122.551 2.28875C145.99 1.48839 242.143 -1.08649 285.024 0.514233C313.517 0.00200198 315.918 18.5338 315.918 18.5338C315.918 18.5338 309.611 19.3433 307.9 23.8939C303.455 35.6157 307.484 77.486 307.484 77.486C307.484 77.486 201.626 97.9935 100.946 77.486C100.946 77.486 104.842 32.6384 102.231 25.3208C100.603 20.7199 98.4804 19.1329 97.2456 19.9424Z" fill="#F9F9F9"/>
<path d="M97.2456 19.9424C97.2456 19.9424 99.1116 3.08911 122.551 2.28875C145.99 1.48839 242.143 -1.08649 285.024 0.514233C313.517 0.00200198 315.918 18.5338 315.918 18.5338C315.918 18.5338 308.952 19.293 307.333 23.5646C303.167 34.541 306.876 76.8869 306.876 76.8869C306.876 76.8869 202.207 97.3944 101.526 76.8869C101.526 76.8869 105.185 31.8838 102.729 25.0235C101.211 20.6925 98.4027 19.1832 97.2456 19.9424Z" fill="#EDEAE9"/>
<path d="M97.2456 19.9424C97.2456 19.9424 99.1116 3.08911 122.551 2.28875C145.99 1.48839 242.143 -1.08649 285.024 0.514233C313.517 0.00200198 315.918 18.5338 315.918 18.5338C315.918 18.5338 308.28 19.2427 306.771 23.2262C302.879 33.4799 306.313 76.2786 306.313 76.2786C306.313 76.2786 202.834 96.7861 102.153 76.2786C102.153 76.2786 105.565 31.1154 103.278 24.7126C101.833 20.6925 98.3158 19.2335 97.2456 19.9424Z" fill="#E0DBDA"/>
<path d="M97.2456 19.9424C97.2456 19.9424 99.1116 3.08911 122.551 2.28875C145.99 1.48839 242.143 -1.08649 285.024 0.514233C313.517 0.00200198 315.918 18.5338 315.918 18.5338C315.918 18.5338 307.608 19.1924 306.208 22.8923C302.595 32.4097 305.719 75.6795 305.719 75.6795C305.719 75.6795 203.428 96.187 102.748 75.6795C102.748 75.6795 105.917 30.3562 103.79 24.4107C102.455 20.6925 98.2472 19.2838 97.2456 19.9424Z" fill="#D4CDCA"/>
<path d="M97.2456 19.9424C97.2456 19.9424 99.1116 3.08911 122.551 2.28875C145.99 1.48839 242.143 -1.08649 285.024 0.514233C313.517 0.00200198 315.918 18.5338 315.918 18.5338C315.918 18.5338 306.935 19.142 305.641 22.5539C302.307 31.3441 305.129 75.0758 305.129 75.0758C305.129 75.0758 204.027 95.5833 103.351 75.0758C103.351 75.0758 106.274 29.597 104.312 24.1043C103.081 20.6559 98.174 19.3204 97.2456 19.9424Z" fill="#C8BEBB"/>
<path d="M97.2456 19.9424C97.2456 19.9424 99.1116 3.08911 122.551 2.28875C145.99 1.48839 242.143 -1.08649 285.024 0.514233C313.517 0.00200198 315.918 18.5338 315.918 18.5338C315.918 18.5338 306.263 19.0917 305.079 22.22C302.019 30.2785 304.544 74.4721 304.544 74.4721C304.544 74.4721 204.631 94.9842 103.95 74.4721C103.95 74.4721 106.63 28.8333 104.833 23.8024C103.703 20.6376 98.0963 19.3844 97.2456 19.9424Z" fill="#BBAFAB"/>
<path d="M97.2456 19.9424C97.2456 19.9424 99.1116 3.08911 122.551 2.28875C145.99 1.48839 242.143 -1.08649 285.024 0.514232C313.517 0.00200198 315.918 18.5338 315.918 18.5338C315.918 18.5338 305.591 19.0414 304.511 21.8861C301.735 29.2037 303.954 73.873 303.954 73.873C303.954 73.873 205.23 94.3805 104.549 73.873C104.549 73.873 106.983 28.0741 105.35 23.5006C104.33 20.6239 98.0185 19.4347 97.2456 19.9424Z" fill="#AFA09C"/>
<path d="M97.2456 19.9424C97.2456 19.9424 99.1116 3.08911 122.551 2.28875C145.99 1.48839 242.143 -1.08649 285.024 0.514232C313.517 0.00200198 315.918 18.5338 315.918 18.5338C315.918 18.5338 304.941 18.9911 303.949 21.5523C301.447 28.1427 303.364 73.2693 303.364 73.2693C303.364 73.2693 205.834 93.7768 105.176 73.2875C105.176 73.2875 107.367 27.3286 105.899 23.2124C104.952 20.6056 97.9408 19.485 97.2456 19.9424Z" fill="#A2918C"/>
<path d="M97.2456 19.9424C97.2456 19.9424 99.1116 3.08911 122.551 2.28875C145.99 1.48839 242.143 -1.08649 285.024 0.514233C313.517 0.00200198 315.918 18.5338 315.918 18.5338C315.918 18.5338 304.246 18.9408 303.386 21.2138C301.164 27.077 302.778 72.6656 302.778 72.6656C302.778 72.6656 206.433 93.1777 105.757 72.6656C105.757 72.6656 107.705 26.5511 106.397 22.8923C105.574 20.5918 97.8585 19.5354 97.2456 19.9424Z" fill="#96837D"/>
<path d="M97.2456 19.9424C97.2456 19.9424 99.1116 3.08911 122.551 2.28875C145.99 1.48839 242.143 -1.08649 285.024 0.514232C313.517 0.00200198 315.918 18.5338 315.918 18.5338C315.918 18.5338 303.569 18.8905 302.819 20.88C300.876 26.0068 302.188 72.0664 302.188 72.0664C302.188 72.0664 207.06 92.5739 106.356 72.0664C106.356 72.0664 108.062 25.7873 106.919 22.5859C106.201 20.5736 97.7853 19.5857 97.2456 19.9424Z" fill="#8A746D"/>
<path d="M97.2456 19.9424C97.2456 19.9424 99.1116 3.08911 122.551 2.28875C145.99 1.48839 242.143 -1.08649 285.024 0.514233C313.517 0.00200198 315.918 18.5338 315.918 18.5338C315.918 18.5338 302.902 18.8402 302.257 20.5461C300.587 24.9412 301.603 71.4627 301.603 71.4627C301.603 71.4627 207.636 91.9703 106.955 71.4627C106.955 71.4627 108.419 25.0281 107.44 22.284C106.823 20.5598 97.7075 19.636 97.2456 19.9424Z" fill="#7D655D"/>
<path d="M97.2456 19.9424C97.2456 19.9424 99.1116 3.08911 122.551 2.28875C145.99 1.48839 242.143 -1.08649 285.024 0.514233C313.517 0.00200198 315.918 18.5338 315.918 18.5338C315.918 18.5338 302.229 18.7899 301.69 20.2122C300.318 23.871 301.013 70.859 301.013 70.859C301.013 70.859 208.235 91.3711 107.554 70.859C107.554 70.859 108.771 24.2689 107.957 21.9822C107.463 20.5415 97.6344 19.6863 97.2456 19.9424Z" fill="#71564E"/>
<path d="M97.2456 19.9424C97.2456 19.9424 99.1116 3.08911 122.551 2.28875C145.99 1.48839 242.143 -1.08649 285.024 0.514232C313.517 0.00200198 315.918 18.5338 315.918 18.5338C315.918 18.5338 301.557 18.7396 301.127 19.8738C300.016 22.8054 300.423 70.2599 300.423 70.2599C300.423 70.2599 208.839 90.7674 108.158 70.2599C108.158 70.2599 109.132 23.5051 108.478 21.6758C108.071 20.5278 97.5566 19.7366 97.2456 19.9424Z" fill="#65473E"/>
<path d="M97.2456 19.9424C97.2456 19.9424 99.1116 3.08911 122.551 2.28875C145.99 1.48839 242.143 -1.08649 285.024 0.514233C313.517 0.00200198 315.918 18.5338 315.918 18.5338C315.918 18.5338 300.885 18.6893 300.565 19.5399C299.728 21.7398 299.837 69.6562 299.837 69.6562C299.837 69.6562 209.438 90.1637 108.762 69.6562C108.762 69.6562 109.493 22.7459 108.999 21.3739C108.693 20.5095 97.4789 19.7778 97.2456 19.9424Z" fill="#58382F"/>
<path d="M97.2456 19.9424C97.2456 19.9424 99.1116 3.08911 122.551 2.28875C145.99 1.48839 242.143 -1.08649 285.024 0.514233C313.517 0.00200198 315.918 18.5338 315.918 18.5338C315.918 18.5338 300.212 18.6344 299.997 19.2061C299.444 20.6696 299.247 69.0571 299.247 69.0571C299.247 69.0571 210.064 89.5646 109.361 69.0571C109.361 69.0571 109.85 21.9822 109.521 21.0675C109.315 20.4958 97.4011 19.8418 97.2456 19.9424Z" fill="#4C2A1F"/>
<path d="M97.2456 19.9424C97.2456 19.9424 99.1116 3.08911 122.551 2.28875C145.99 1.48839 242.143 -1.08649 285.024 0.514233C313.517 0.00200198 315.918 18.5338 315.918 18.5338C315.918 18.5338 299.54 18.5841 299.453 18.8722C299.174 19.604 298.676 68.4534 298.676 68.4534C298.676 68.4534 210.659 88.9609 109.983 68.4534C109.983 68.4534 110.225 21.223 110.061 20.7656C109.942 20.4775 97.3234 19.8921 97.2456 19.9424Z" fill="#3F1B10"/>
<path d="M97.2456 19.9424C97.2456 19.9424 99.1116 3.08911 122.551 2.28875C145.99 1.48839 242.143 -1.08649 285.024 0.514233C313.517 0.00200198 315.918 18.5338 315.918 18.5338H298.868L298.072 67.8497C298.072 67.8497 211.244 88.3572 110.559 67.8497V20.4638L97.2456 19.9424Z" fill="#330C00"/>
</g>
<path d="M96.8242 20.2636C96.8242 20.2636 98.693 3.40244 122.167 2.6017C145.642 1.80097 241.939 -0.775105 284.884 0.826362C313.42 0.313893 315.824 18.8543 315.824 18.8543H298.749L297.952 68.1932C297.952 68.1932 210.994 88.7103 110.158 68.1932V20.7852L96.8242 20.2636Z" fill="#CC3A48"/>
<path style="mix-blend-mode:soft-light" opacity="0.47" d="M96.8242 20.2636C96.8242 20.2636 98.693 3.40244 122.167 2.6017C145.642 1.80097 241.939 -0.775105 284.884 0.826362C313.42 0.313893 315.824 18.8543 315.824 18.8543H298.749L297.952 68.1932C297.952 68.1932 210.994 88.7103 110.158 68.1932V20.7852L96.8242 20.2636Z" fill="url(#paint1_linear_209_12952)"/>
<path d="M203.817 67.3106C175.74 67.3771 147.715 64.8988 120.091 59.9064V12.0737C120.196 12.0737 118.723 4.71026 104.824 8.19032C109.127 5.55762 111.037 2.35397 130.589 2.47178C166.866 0.768003 246.931 -0.337635 281.808 0.73629C289.43 1.0127 296.906 0.283154 304.824 4.99574C294.859 1.92803 289.161 8.10876 289.234 10.2158L288.427 59.9608C274.797 62.5164 243.69 67.3106 203.817 67.3106Z" fill="#E94850"/>
<g opacity="0.14">
<path d="M203.264 66.3358C174.542 65.7732 146.52 63.7792 119.921 58.3596V60.1341C147.636 65.173 175.753 67.6743 203.922 67.6072C227.041 67.6169 250.131 65.9999 273.023 62.7685C249.883 65.6064 226.572 66.7985 203.264 66.3358V66.3358Z" fill="#FC8893"/>
<path d="M288.294 60.2851L288.811 60.189L289.24 33.6948L288.294 60.2851Z" fill="#FC8893"/>
</g>
<path style="mix-blend-mode:soft-light" d="M203.817 67.3106C175.74 67.3771 147.715 64.8988 120.091 59.9064V12.0737C120.196 12.0737 118.723 4.71026 104.824 8.19032C109.127 5.55762 111.037 2.35397 130.589 2.47178C166.866 0.768003 246.931 -0.337635 281.808 0.73629C289.43 1.0127 296.906 0.283154 304.824 4.99574C294.859 1.92803 289.161 8.10876 289.234 10.2158L288.427 59.9608C274.797 62.5164 243.69 67.3106 203.817 67.3106Z" fill="url(#paint2_linear_209_12952)"/>
<path style="mix-blend-mode:screen" opacity="0.44" d="M120.091 12.3119C120.196 12.3119 118.723 4.79934 104.824 8.34988C109.127 5.66386 111.037 2.39533 130.589 2.51553C166.866 0.777241 246.931 -0.35079 281.808 0.744885C289.43 1.02689 296.906 0.282572 304.824 5.0906C294.859 1.96076 289.161 8.26667 289.234 10.4164L120.091 12.3119Z" fill="url(#paint3_linear_209_12952)"/>
<path d="M298.969 18.3119H313.824C313.824 18.3119 313.185 11.5144 306.394 11.3179C299.604 11.1214 298.334 15.7869 298.969 18.3119Z" fill="#7C1515"/>
<path d="M98.8242 19.7463L110.615 20.3119C110.615 20.3119 112.131 14.7584 107.002 14.3442C101.873 13.9301 99.3567 17.5908 98.8242 19.7463Z" fill="#7C1515"/>
<g style="mix-blend-mode:color-dodge" opacity="0.12">
<path d="M361.04 50.8774L366.163 46.0707C366.163 46.0707 360.281 39.7501 359.837 39.7501C359.394 39.7501 354.848 45.0645 354.848 45.0645C354.848 45.0645 349.36 39.7501 349.195 39.7501C349.03 39.7501 343.913 44.8313 343.913 45.0416C343.913 45.252 349.401 50.8774 349.401 50.8774C349.401 50.8774 343.913 56.4662 343.913 56.7177C343.913 56.9693 348.765 61.927 349.204 62.0093C349.643 62.0916 354.857 56.6949 354.857 56.6949C354.857 56.6949 359.572 62.0093 359.847 62.0093C360.121 62.0093 366.172 56.2238 366.172 55.6842C366.172 55.1445 361.04 50.8774 361.04 50.8774Z" fill="url(#paint4_radial_209_12952)"/>
</g>
<path d="M151.535 54.3119L156.143 27.1679H163.127L168.563 41.6399L173.963 27.1679H180.947L185.555 54.3119H178.535L176.195 38.6879L169.787 54.3119H166.979L160.895 38.6879L158.555 54.3119H151.535ZM203.008 42.3959C202.792 41.4839 202.348 40.7519 201.676 40.1999C201.004 39.6479 200.188 39.3719 199.228 39.3719C198.22 39.3719 197.392 39.6359 196.744 40.1639C196.12 40.6919 195.724 41.4359 195.556 42.3959H203.008ZM195.376 46.1759C195.376 48.9839 196.696 50.3879 199.336 50.3879C200.752 50.3879 201.82 49.8119 202.54 48.6599H208.84C207.568 52.8839 204.388 54.9959 199.3 54.9959C197.74 54.9959 196.312 54.7679 195.016 54.3119C193.72 53.8319 192.604 53.1599 191.668 52.2959C190.756 51.4319 190.048 50.3999 189.544 49.1999C189.04 47.9999 188.788 46.6559 188.788 45.1679C188.788 43.6319 189.028 42.2519 189.508 41.0279C189.988 39.7799 190.672 38.7239 191.56 37.8599C192.448 36.9959 193.516 36.3359 194.764 35.8799C196.036 35.3999 197.464 35.1599 199.048 35.1599C200.608 35.1599 202.012 35.3999 203.26 35.8799C204.508 36.3359 205.564 37.0079 206.428 37.8959C207.292 38.7839 207.952 39.8759 208.408 41.1719C208.864 42.4439 209.092 43.8839 209.092 45.4919V46.1759H195.376ZM213.897 35.8439H220.413V38.1839C221.301 37.1039 222.201 36.3839 223.113 36.0239C224.025 35.6399 225.093 35.4479 226.317 35.4479C227.613 35.4479 228.717 35.6639 229.629 36.0959C230.565 36.5039 231.357 37.0919 232.005 37.8599C232.533 38.4839 232.893 39.1799 233.085 39.9479C233.277 40.7159 233.373 41.5919 233.373 42.5759V54.3119H226.857V44.9879C226.857 44.0759 226.785 43.3439 226.641 42.7919C226.521 42.2159 226.293 41.7599 225.957 41.4239C225.669 41.1359 225.345 40.9319 224.985 40.8119C224.625 40.6919 224.241 40.6319 223.833 40.6319C222.729 40.6319 221.877 40.9679 221.277 41.6399C220.701 42.2879 220.413 43.2239 220.413 44.4479V54.3119H213.897V35.8439ZM245.399 35.8439V46.2479C245.399 48.5279 246.503 49.6679 248.711 49.6679C250.919 49.6679 252.023 48.5279 252.023 46.2479V35.8439H258.539V47.5079C258.539 50.0039 257.711 51.8759 256.055 53.1239C254.423 54.3719 251.975 54.9959 248.711 54.9959C245.447 54.9959 242.987 54.3719 241.331 53.1239C239.699 51.8759 238.883 50.0039 238.883 47.5079V35.8439H245.399Z" fill="white"/>
<defs>
<linearGradient id="paint0_linear_209_12952" x1="201.826" y1="28.3119" x2="201.826" y2="511.312" gradientUnits="userSpaceOnUse">
<stop stop-color="#F8B54A"/>
<stop offset="1" stop-color="white"/>
</linearGradient>
<linearGradient id="paint1_linear_209_12952" x1="206.322" y1="0.313893" x2="206.322" y2="77.3124" gradientUnits="userSpaceOnUse">
<stop stop-color="white"/>
<stop offset="1"/>
</linearGradient>
<linearGradient id="paint2_linear_209_12952" x1="204.824" y1="0.310344" x2="204.824" y2="67.3106" gradientUnits="userSpaceOnUse">
<stop stop-color="white"/>
<stop offset="1"/>
</linearGradient>
<linearGradient id="paint3_linear_209_12952" x1="204.824" y1="0.310312" x2="204.824" y2="12.3119" gradientUnits="userSpaceOnUse">
<stop stop-color="white"/>
<stop offset="0.89"/>
</linearGradient>
<radialGradient id="paint4_radial_209_12952" cx="0" cy="0" r="1" gradientUnits="userSpaceOnUse" gradientTransform="translate(355.031 50.882) scale(11.1273 11.1273)">
<stop stop-color="#F95654"/>
<stop offset="1" stop-color="#F90B17"/>
</radialGradient>
</defs>
</svg>
